<?xml version="1.0" encoding="utf-8"?>
<!-- Generator: Adobe Illustrator 26.0.1, SVG Export Plug-In . SVG Version: 6.00 Build 0)  -->
<svg version="1.1" id="Layer_1" xmlns="http://www.w3.org/2000/svg" xmlns:xlink="http://www.w3.org/1999/xlink" x="0px" y="0px"
	 viewBox="0 0 1000 1000" enable-background="new 0 0 1000 1000" xml:space="preserve">
<g>
	<g>
		<g>
			
				<radialGradient id="SVGID_1_" cx="832.9127" cy="249.4832" r="445.3288" fx="1215.2289" fy="248.2139" gradientTransform="matrix(0.8377 -0.5462 1.2737 1.9536 -496.0606 454.873)" gradientUnits="userSpaceOnUse">
				<stop  offset="3.745849e-02" style="stop-color:#D51E69"/>
				<stop  offset="0.1445" style="stop-color:#B41E7C"/>
				<stop  offset="0.2727" style="stop-color:#921D90"/>
				<stop  offset="0.3423" style="stop-color:#851D97"/>
				<stop  offset="0.4122" style="stop-color:#7C209D"/>
				<stop  offset="0.526" style="stop-color:#6426AE"/>
				<stop  offset="0.6508" style="stop-color:#4230C5"/>
				<stop  offset="0.7123" style="stop-color:#3C39CC"/>
				<stop  offset="0.8102" style="stop-color:#2A50E0"/>
				<stop  offset="0.8792" style="stop-color:#1B64F2"/>
			</radialGradient>
			<polygon fill="url(#SVGID_1_)" points="852.1,296.7 852.1,703.3 500,906.6 147.9,703.3 147.9,296.7 500,93.4 			"/>
			
				<radialGradient id="SVGID_00000094583918651995268780000007516923172853299341_" cx="837.3673" cy="246.3415" r="547.4185" fx="1307.3278" fy="244.7812" gradientTransform="matrix(0.8377 -0.5462 1.2737 1.9536 -491.6399 460.0742)" gradientUnits="userSpaceOnUse">
				<stop  offset="3.745849e-02" style="stop-color:#D51E69"/>
				<stop  offset="0.1445" style="stop-color:#B41E7C"/>
				<stop  offset="0.2727" style="stop-color:#921D90"/>
				<stop  offset="0.3423" style="stop-color:#851D97"/>
				<stop  offset="0.4122" style="stop-color:#7C209D"/>
				<stop  offset="0.526" style="stop-color:#6426AE"/>
				<stop  offset="0.6508" style="stop-color:#4230C5"/>
				<stop  offset="0.7123" style="stop-color:#3C39CC"/>
				<stop  offset="0.8102" style="stop-color:#2A50E0"/>
				<stop  offset="0.8792" style="stop-color:#1B64F2"/>
			</radialGradient>
			<path fill="url(#SVGID_00000094583918651995268780000007516923172853299341_)" d="M500.2,0L67.3,249.9V749l432.2,251l432.7-250.9
				l0.5-499.2L500.2,0z M892.9,726.9L500,953.7L107.1,726.8V273.2L500,46.3l392.9,226.9V726.9L892.9,726.9z"/>
		</g>
		<g opacity="0.2">
			<polygon fill="#FFFFFF" points="852.1,296.7 852.1,703.3 500,906.6 147.9,703.3 147.9,296.7 500,93.4 			"/>
		</g>
	</g>
	<path fill="#FFFFFF" d="M658.9,419.2c0.3,3.5,0.3,7,0.3,10.6c0,107.5-81.8,231.3-231.3,231.3c-41.5,0-80.4-10.9-114.1-30
		c-2.7-1.5-1.6-5.7,1.6-5.6c2.4,0.1,4.8,0.1,7.3,0.1c35.1,0,67.6-10.9,94.3-29.8c2.3-1.6,1.3-5.1-1.4-5.4
		c-30.4-3.6-55.7-23.7-66.4-51.1c-0.8-2.1,0.9-4.3,3.1-4.1c3.5,0.4,6.9,0.6,10.6,0.6c2.8,0,5.7-0.2,8.5-0.4c3.2-0.3,3.8-4.7,0.8-5.8
		c-31-11.5-53-41.2-53-76.3v-1c7.9,4.4,16.6,7.6,26,9.2c3,0.5,4.7-3.2,2.4-5.2c-17.1-14.9-27.9-36.9-27.9-61.3
		c0-13.5,3.2-26,8.9-37.1c1-1.9,3.6-2.2,4.9-0.5c39.2,46.5,96.6,77,161,81.5c1.9,0.1,3.5-1.6,3.1-3.5c-0.8-4.9-1.3-9.9-1.3-14.9
		c0-44.8,36.2-81.3,81.3-81.3c22.8,0,43.5,9.3,58.3,24.5c0.7,0.7,1.7,1.1,2.8,0.9c15-3,29.6-8.3,42.8-15.3c2.5-1.3,5.3,1.2,4.2,3.8
		c-5.1,11.6-12.9,21.8-22.6,29.8c-2.4,2-0.5,5.8,2.5,5.2c8.4-1.6,16.6-4,24.5-6.9c2.8-1,5.2,2.3,3.4,4.7
		C683.6,398.4,671.9,409.7,658.9,419.2L658.9,419.2z"/>
	<path fill="#FFFFFF" d="M500,953.7L107.1,726.9V273.2L500,46.3l392.9,226.9v453.7L500,953.7z M147.9,703.3L500,906.6l352.1-203.3
		V296.7L500,93.4L147.9,296.7V703.3z"/>
</g>
<g>
	<g>
		
			<radialGradient id="SVGID_00000104705886645130341380000008286166219857006743_" cx="1985.5763" cy="283.1875" r="183.6593" fx="2143.2483" fy="282.664" gradientTransform="matrix(0.8377 -0.5462 -1.2737 -1.9536 459.2144 1670.073)" gradientUnits="userSpaceOnUse">
			<stop  offset="3.745849e-02" style="stop-color:#D51E69"/>
			<stop  offset="0.1445" style="stop-color:#B41E7C"/>
			<stop  offset="0.2727" style="stop-color:#921D90"/>
			<stop  offset="0.3423" style="stop-color:#851D97"/>
			<stop  offset="0.4122" style="stop-color:#7C209D"/>
			<stop  offset="0.526" style="stop-color:#6426AE"/>
			<stop  offset="0.6508" style="stop-color:#4230C5"/>
			<stop  offset="0.7123" style="stop-color:#3C39CC"/>
			<stop  offset="0.8102" style="stop-color:#2A50E0"/>
			<stop  offset="0.8792" style="stop-color:#1B64F2"/>
		</radialGradient>
		<polygon fill="url(#SVGID_00000104705886645130341380000008286166219857006743_)" points="1899,-46.3 1899,121.4 1753.8,205.2 
			1608.6,121.4 1608.6,-46.3 1753.8,-130.1 		"/>
		
			<radialGradient id="SVGID_00000124163373188136532510000011237755213785459331_" cx="1986.9066" cy="286.1892" r="225.7623" fx="2180.7241" fy="285.5457" gradientTransform="matrix(0.8377 -0.5462 -1.2737 -1.9536 463.6351 1675.2743)" gradientUnits="userSpaceOnUse">
			<stop  offset="3.745849e-02" style="stop-color:#D51E69"/>
			<stop  offset="0.1445" style="stop-color:#B41E7C"/>
			<stop  offset="0.2727" style="stop-color:#921D90"/>
			<stop  offset="0.3423" style="stop-color:#851D97"/>
			<stop  offset="0.4122" style="stop-color:#7C209D"/>
			<stop  offset="0.526" style="stop-color:#6426AE"/>
			<stop  offset="0.6508" style="stop-color:#4230C5"/>
			<stop  offset="0.7123" style="stop-color:#3C39CC"/>
			<stop  offset="0.8102" style="stop-color:#2A50E0"/>
			<stop  offset="0.8792" style="stop-color:#1B64F2"/>
		</radialGradient>
		<path fill="url(#SVGID_00000124163373188136532510000011237755213785459331_)" d="M1753.9-168.7L1575.4-65.6v205.8l178.2,103.5
			l178.5-103.5l0.2-205.9L1753.9-168.7z M1915.9,131.1l-162,93.5l-162-93.6V-56l162-93.6l162,93.6L1915.9,131.1L1915.9,131.1z"/>
	</g>
	<g opacity="0.2">
		<polygon fill="#FFFFFF" points="1899,-46.3 1899,121.4 1753.8,205.2 1608.6,121.4 1608.6,-46.3 1753.8,-130.1 		"/>
	</g>
</g>
<g>
	<g>
		<path fill="#FFFFFF" d="M1966.7,334.3L1966.7,334.3l0.1-0.1C1966.7,334.2,1966.7,334.2,1966.7,334.3z"/>
	</g>
	<path fill="#FFFFFF" d="M1966.8,334.1v0.1h-0.1C1966.7,334.2,1966.7,334.2,1966.8,334.1z"/>
</g>
<g>
	<g>
		<g>
			<g>
				<path fill="#FFFFFF" d="M2105.8,391.3l-0.5-63.2l-0.1-8.2l-8.2,0.1l-4.2,0l3-3l5.8-5.9l-5.9-5.8l-44.9-44.5l-5.9-5.8l-5.8,5.9
					l-1.2,1.2l0-2.4l0-8.2l-8.2,0l-63.2,0.3l-8.2,0l0,8.2l0.4,93.7c-0.2,1.7-0.3,3.5-0.3,5.3c0,5.3,1.1,10.4,3,15.1
					c2,5.6,5.2,10.6,9.5,14.9c7.5,7.4,17.5,11.5,28.1,11.5h0.3l98.4-0.8l8.2-0.1L2105.8,391.3z M2038,273.7l7-7.1l44.9,44.5
					l-8.9,8.9l-23.3,0.2l-19.6-19.6l-13.5-13.5l5.2-5.2L2038,273.7z M1966.5,260l63.2-0.3l0,10.6l-18.4,18.6h-44.7L1966.5,260z
					 M1966.6,297.1h36.5l-28.6,28.8l-0.1,0.1h-7.7V326L1966.6,297.1z M2022.7,392l-2.6,0l-0.5,0l-20.5,0.2h-0.3
					c-3,0-5.9-0.4-8.6-1.2c-0.5-0.1-1-0.3-1.5-0.5c-1.5-0.5-2.9-1.1-4.2-1.8c-0.4-0.2-0.9-0.5-1.3-0.7c-2.6-1.5-5-3.4-7.1-5.6
					c-0.4-0.4-0.7-0.7-1-1.1c-0.3-0.4-0.7-0.8-1-1.2c-0.3-0.4-0.6-0.8-0.9-1.2c-0.1-0.2-0.3-0.4-0.4-0.6c-0.3-0.4-0.6-0.8-0.8-1.3
					c-0.7-1.1-1.3-2.3-1.9-3.6c-0.2-0.4-0.4-0.8-0.5-1.2c-0.2-0.5-0.4-0.9-0.5-1.4c0,0,0,0,0,0c-0.7-2.1-1.2-4.3-1.5-6.6
					c0,0,0,0,0,0c0,0,0,0,0,0c0,0,0,0,0,0c-0.1-1.1-0.2-2.3-0.2-3.5v-0.3c0-7.2,2.4-13.9,6.5-19.2c2.1-2.8,4.7-5.2,7.6-7.1
					c4.9-3.3,10.8-5.2,17.2-5.3l3.7,0h0.1l9.3-0.1l1.7,0h0.4l8.9-0.1V392z M2027,320.5l-21.3,0.2l-7.2-7.2l16.2-16.4l0.2-0.2
					l3.8-3.8l0.1-0.1l4.1,4.1l6.9,6.9l8.3,8.3l8,8h-0.2l-7.8,0.1l-8.2,0.1L2027,320.5z M2060.1,391.7L2060.1,391.7l-15.9,0.1
					l-13.3,0.1v-63.2h0l7.3-0.1l15.9-0.1h0.2l5.7,0h0.1V391.7z M2068.3,391.6v-63.2l4.4,0l11.7-0.1l12.5-0.1l0.5,63.2L2068.3,391.6z
					"/>
			</g>
		</g>
	</g>
	<g>
		<path fill="#FFFFFF" d="M2007.9,361.1c0,5.4-3.5,9.9-8.3,11.5c-1.2,0.4-2.4,0.6-3.7,0.6c-3.5,0-6.6-1.5-8.8-3.8
			c-2-2.2-3.3-5.1-3.3-8.2c0-6.7,5.4-12.1,12.1-12.1C2002.5,349.1,2007.9,354.5,2007.9,361.1z"/>
	</g>
</g>
</svg>
